# Blender v2.76 (sub 0) OBJ File: 'forest.blend'
# www.blender.org
v -4.008389 0.004044 3.984217
v 4.002332 0.004044 3.984217
v -4.008389 0.004044 -3.990208
v 4.002332 0.004044 -3.990208
vn 0.000000 1.000000 0.000000
s off
f 2/0/1 4/0/1 3/0/1
f 1/0/1 2/0/1 3/0/1
v 0.231010 -0.038353 -1.046913
v 0.231010 2.564944 -1.046913
v 0.415770 -0.038353 -1.029763
v 0.415770 2.564944 -1.029763
v 0.593430 -0.038353 -0.978971
v 0.593430 2.564944 -0.978971
v 0.757162 -0.038353 -0.896490
v 0.757162 2.564944 -0.896490
v 0.900675 -0.038353 -0.785489
v 0.900675 2.564944 -0.785489
v 1.018452 -0.038353 -0.650234
v 1.018452 2.564944 -0.650234
v 1.105969 -0.038353 -0.495923
v 1.105969 2.564944 -0.495923
v 1.159862 -0.038353 -0.328485
v 1.159862 2.564944 -0.328485
v 1.178059 -0.038353 -0.154356
v 1.178059 2.564944 -0.154356
v 1.159862 -0.038353 0.019773
v 1.159862 2.564944 0.019773
v 1.105969 -0.038353 0.187211
v 1.105969 2.564944 0.187211
v 1.018452 -0.038353 0.341522
v 1.018452 2.564944 0.341522
v 0.900675 -0.038353 0.476777
v 0.900675 2.564944 0.476777
v 0.757162 -0.038353 0.587778
v 0.757162 2.564944 0.587778
v 0.593430 -0.038353 0.670259
v 0.593430 2.564944 0.670259
v 0.415770 -0.038353 0.721051
v 0.415770 2.564944 0.721051
v 0.231009 -0.038353 0.738201
v 0.231009 2.564944 0.738201
v 0.046249 -0.038353 0.721051
v 0.046249 2.564944 0.721051
v -0.131411 -0.038353 0.670259
v -0.131411 2.564944 0.670259
v -0.295143 -0.038353 0.587778
v -0.295143 2.564944 0.587778
v -0.438656 -0.038353 0.476777
v -0.438656 2.564944 0.476777
v -0.556433 -0.038353 0.341521
v -0.556433 2.564944 0.341521
v -0.643950 -0.038353 0.187210
v -0.643950 2.564944 0.187210
v -0.697842 -0.038353 0.019772
v -0.697842 2.564944 0.019772
v -0.716039 -0.038353 -0.154357
v -0.716039 2.564944 -0.154357
v -0.697842 -0.038353 -0.328486
v -0.697842 2.564944 -0.328486
v -0.643949 -0.038353 -0.495924
v -0.643949 2.564944 -0.495924
v -0.556432 -0.038353 -0.650235
v -0.556432 2.564944 -0.650235
v -0.438654 -0.038353 -0.785490
v -0.438654 2.564944 -0.785490
v -0.295142 -0.038353 -0.896491
v -0.295142 2.564944 -0.896491
v -0.131409 -0.038353 -0.978972
v -0.131409 2.564944 -0.978972
v 0.046251 -0.038353 -1.029763
v 0.046251 2.564944 -1.029763
vn 0.092400 0.000000 -0.995700
vn 0.274900 0.000000 -0.961500
vn 0.449900 0.000000 -0.893100
vn 0.611800 0.000000 -0.791000
vn 0.754200 0.000000 -0.656700
vn 0.869800 0.000000 -0.493300
vn 0.951900 0.000000 -0.306400
vn 0.994600 0.000000 -0.103900
vn 0.994600 0.000000 0.103900
vn 0.951900 0.000000 0.306400
vn 0.869800 0.000000 0.493300
vn 0.754200 0.000000 0.656700
vn 0.611800 0.000000 0.791000
vn 0.449900 0.000000 0.893100
vn 0.274900 0.000000 0.961500
vn 0.092400 0.000000 0.995700
vn -0.092400 0.000000 0.995700
vn -0.274900 0.000000 0.961500
vn -0.449900 0.000000 0.893100
vn -0.611800 0.000000 0.791000
vn -0.754200 0.000000 0.656700
vn -0.869800 0.000000 0.493300
vn -0.951900 0.000000 0.306400
vn -0.994600 0.000000 0.103900
vn -0.994600 0.000000 -0.103900
vn -0.951900 0.000000 -0.306400
vn -0.869800 0.000000 -0.493300
vn -0.754100 0.000000 -0.656700
vn -0.611800 0.000000 -0.791000
vn -0.449900 0.000000 -0.893100
vn 0.000000 1.000000 0.000000
vn -0.092400 0.000000 -0.995700
vn -0.274900 0.000000 -0.961500
vn 0.000000 -1.000000 0.000000
s off
f 6/0/2 8/0/2 7/0/2
f 8/0/3 10/0/3 9/0/3
f 10/0/4 12/0/4 11/0/4
f 12/0/5 14/0/5 13/0/5
f 14/0/6 16/0/6 15/0/6
f 16/0/7 18/0/7 17/0/7
f 18/0/8 20/0/8 19/0/8
f 20/0/9 22/0/9 21/0/9
f 22/0/10 24/0/10 23/0/10
f 24/0/11 26/0/11 25/0/11
f 26/0/12 28/0/12 27/0/12
f 28/0/13 30/0/13 29/0/13
f 30/0/14 32/0/14 31/0/14
f 32/0/15 34/0/15 33/0/15
f 34/0/16 36/0/16 35/0/16
f 36/0/17 38/0/17 37/0/17
f 38/0/18 40/0/18 39/0/18
f 40/0/19 42/0/19 41/0/19
f 42/0/20 44/0/20 43/0/20
f 44/0/21 46/0/21 45/0/21
f 46/0/22 48/0/22 47/0/22
f 48/0/23 50/0/23 49/0/23
f 50/0/24 52/0/24 51/0/24
f 52/0/25 54/0/25 53/0/25
f 54/0/26 56/0/26 55/0/26
f 56/0/27 58/0/27 57/0/27
f 58/0/28 60/0/28 59/0/28
f 60/0/29 62/0/29 61/0/29
f 62/0/30 64/0/30 63/0/30
f 64/0/31 66/0/31 65/0/31
f 30/0/32 12/0/32 32/0/32
f 68/0/33 6/0/33 5/0/33
f 66/0/34 68/0/34 67/0/34
f 43/0/35 65/0/35 41/0/35
f 5/0/2 6/0/2 7/0/2
f 7/0/3 8/0/3 9/0/3
f 9/0/4 10/0/4 11/0/4
f 11/0/5 12/0/5 13/0/5
f 13/0/6 14/0/6 15/0/6
f 15/0/7 16/0/7 17/0/7
f 17/0/8 18/0/8 19/0/8
f 19/0/9 20/0/9 21/0/9
f 21/0/10 22/0/10 23/0/10
f 23/0/11 24/0/11 25/0/11
f 25/0/12 26/0/12 27/0/12
f 27/0/13 28/0/13 29/0/13
f 29/0/14 30/0/14 31/0/14
f 31/0/15 32/0/15 33/0/15
f 33/0/16 34/0/16 35/0/16
f 35/0/17 36/0/17 37/0/17
f 37/0/18 38/0/18 39/0/18
f 39/0/19 40/0/19 41/0/19
f 41/0/20 42/0/20 43/0/20
f 43/0/21 44/0/21 45/0/21
f 45/0/22 46/0/22 47/0/22
f 47/0/23 48/0/23 49/0/23
f 49/0/24 50/0/24 51/0/24
f 51/0/25 52/0/25 53/0/25
f 53/0/26 54/0/26 55/0/26
f 55/0/27 56/0/27 57/0/27
f 57/0/28 58/0/28 59/0/28
f 59/0/29 60/0/29 61/0/29
f 61/0/30 62/0/30 63/0/30
f 63/0/31 64/0/31 65/0/31
f 10/0/32 8/0/32 36/0/32
f 6/0/32 68/0/32 40/0/32
f 66/0/32 64/0/32 42/0/32
f 62/0/32 60/0/32 46/0/32
f 58/0/32 56/0/32 52/0/32
f 54/0/32 52/0/32 56/0/32
f 50/0/32 48/0/32 58/0/32
f 46/0/32 44/0/32 62/0/32
f 42/0/32 40/0/32 68/0/32
f 38/0/32 36/0/32 8/0/32
f 34/0/32 32/0/32 10/0/32
f 30/0/32 28/0/32 14/0/32
f 26/0/32 24/0/32 20/0/32
f 22/0/32 20/0/32 24/0/32
f 18/0/32 16/0/32 26/0/32
f 14/0/32 12/0/32 30/0/32
f 8/0/32 6/0/32 38/0/32
f 64/0/32 44/0/32 42/0/32
f 58/0/32 52/0/32 50/0/32
f 48/0/32 60/0/32 58/0/32
f 40/0/32 38/0/32 6/0/32
f 32/0/32 12/0/32 10/0/32
f 26/0/32 20/0/32 18/0/32
f 16/0/32 28/0/32 26/0/32
f 68/0/32 66/0/32 42/0/32
f 48/0/32 46/0/32 60/0/32
f 36/0/32 34/0/32 10/0/32
f 16/0/32 14/0/32 28/0/32
f 62/0/32 44/0/32 64/0/32
f 67/0/33 68/0/33 5/0/33
f 65/0/34 66/0/34 67/0/34
f 67/0/35 5/0/35 37/0/35
f 7/0/35 9/0/35 35/0/35
f 11/0/35 13/0/35 29/0/35
f 15/0/35 17/0/35 27/0/35
f 19/0/35 21/0/35 23/0/35
f 23/0/35 25/0/35 19/0/35
f 27/0/35 29/0/35 13/0/35
f 31/0/35 33/0/35 11/0/35
f 35/0/35 37/0/35 5/0/35
f 39/0/35 41/0/35 67/0/35
f 43/0/35 45/0/35 61/0/35
f 47/0/35 49/0/35 59/0/35
f 51/0/35 53/0/35 55/0/35
f 55/0/35 57/0/35 51/0/35
f 59/0/35 61/0/35 45/0/35
f 63/0/35 65/0/35 43/0/35
f 5/0/35 7/0/35 35/0/35
f 13/0/35 15/0/35 27/0/35
f 19/0/35 25/0/35 17/0/35
f 29/0/35 31/0/35 11/0/35
f 37/0/35 39/0/35 67/0/35
f 45/0/35 47/0/35 59/0/35
f 51/0/35 57/0/35 49/0/35
f 61/0/35 63/0/35 43/0/35
f 9/0/35 33/0/35 35/0/35
f 25/0/35 27/0/35 17/0/35
f 41/0/35 65/0/35 67/0/35
f 57/0/35 59/0/35 49/0/35
f 11/0/35 33/0/35 9/0/35
v 0.147832 1.706606 -2.584058
v 0.147832 5.651307 -0.060056
v 0.642772 1.706606 -2.535560
v 1.118692 1.706606 -2.391930
v 1.557302 1.706606 -2.158687
v 1.941747 1.706606 -1.844795
v 2.257253 1.706606 -1.462316
v 2.491695 1.706606 -1.025950
v 2.636064 1.706606 -0.552464
v 2.684811 1.706606 -0.060056
v 2.636064 1.706606 0.432352
v 2.491695 1.706606 0.905838
v 2.257253 1.706606 1.342205
v 1.941747 1.706606 1.724683
v 1.557302 1.706606 2.038576
v 1.118691 1.706606 2.271819
v 0.642771 1.706606 2.415449
v 0.147831 1.706606 2.463947
v -0.347110 1.706606 2.415448
v -0.823030 1.706606 2.271818
v -1.261640 1.706606 2.038575
v -1.646085 1.706606 1.724682
v -1.961591 1.706606 1.342203
v -2.196033 1.706606 0.905836
v -2.340401 1.706606 0.432350
v -2.389148 1.706606 -0.060058
v -2.340400 1.706606 -0.552467
v -2.196031 1.706606 -1.025952
v -1.961588 1.706606 -1.462319
v -1.646082 1.706606 -1.844797
v -1.261636 1.706606 -2.158689
v -0.823025 1.706606 -2.391931
v -0.347105 1.706606 -2.535561
vn -0.243700 0.537300 -0.807400
vn 0.082300 0.537100 -0.839500
vn -0.395900 0.537600 -0.744500
vn -0.533200 0.537900 -0.653000
vn -0.650100 0.538300 -0.536300
vn -0.742200 0.538600 -0.398800
vn -0.805700 0.538900 -0.245700
vn -0.838200 0.539100 -0.083000
vn -0.838200 0.539100 0.083000
vn -0.805700 0.538900 0.245700
vn -0.742200 0.538600 0.398800
vn -0.650100 0.538300 0.536300
vn -0.533200 0.537900 0.653000
vn -0.395900 0.537600 0.744500
vn -0.243700 0.537300 0.807400
vn -0.082300 0.537100 0.839500
vn 0.082300 0.537100 0.839500
vn 0.243700 0.537300 0.807400
vn 0.395900 0.537600 0.744500
vn 0.533200 0.537900 0.653000
vn 0.650100 0.538300 0.536300
vn 0.742200 0.538600 0.398800
vn 0.805700 0.538900 0.245700
vn 0.838200 0.539100 0.083000
vn 0.838200 0.539100 -0.083000
vn 0.805700 0.538900 -0.245700
vn 0.742200 0.538600 -0.398800
vn 0.650100 0.538300 -0.536300
vn 0.533200 0.537900 -0.653000
vn 0.395900 0.537600 -0.744500
vn -0.082300 0.537100 -0.839500
vn 0.243700 0.537300 -0.807400
vn 0.000000 -1.000000 -0.000000
s off
f 100/0/36 70/0/36 101/0/36
f 69/0/37 70/0/37 71/0/37
f 99/0/38 70/0/38 100/0/38
f 98/0/39 70/0/39 99/0/39
f 97/0/40 70/0/40 98/0/40
f 96/0/41 70/0/41 97/0/41
f 95/0/42 70/0/42 96/0/42
f 94/0/43 70/0/43 95/0/43
f 93/0/44 70/0/44 94/0/44
f 92/0/45 70/0/45 93/0/45
f 91/0/46 70/0/46 92/0/46
f 90/0/47 70/0/47 91/0/47
f 89/0/48 70/0/48 90/0/48
f 88/0/49 70/0/49 89/0/49
f 87/0/50 70/0/50 88/0/50
f 86/0/51 70/0/51 87/0/51
f 85/0/52 70/0/52 86/0/52
f 84/0/53 70/0/53 85/0/53
f 83/0/54 70/0/54 84/0/54
f 82/0/55 70/0/55 83/0/55
f 81/0/56 70/0/56 82/0/56
f 80/0/57 70/0/57 81/0/57
f 79/0/58 70/0/58 80/0/58
f 78/0/59 70/0/59 79/0/59
f 77/0/60 70/0/60 78/0/60
f 76/0/61 70/0/61 77/0/61
f 75/0/62 70/0/62 76/0/62
f 74/0/63 70/0/63 75/0/63
f 73/0/64 70/0/64 74/0/64
f 72/0/65 70/0/65 73/0/65
f 101/0/66 70/0/66 69/0/66
f 71/0/67 70/0/67 72/0/67
f 89/0/68 100/0/68 88/0/68
f 101/0/68 69/0/68 86/0/68
f 71/0/68 72/0/68 85/0/68
f 73/0/68 74/0/68 82/0/68
f 75/0/68 76/0/68 81/0/68
f 77/0/68 78/0/68 79/0/68
f 79/0/68 80/0/68 77/0/68
f 81/0/68 82/0/68 74/0/68
f 83/0/68 84/0/68 73/0/68
f 85/0/68 86/0/68 69/0/68
f 87/0/68 88/0/68 101/0/68
f 89/0/68 90/0/68 98/0/68
f 91/0/68 92/0/68 97/0/68
f 93/0/68 94/0/68 95/0/68
f 95/0/68 96/0/68 93/0/68
f 97/0/68 98/0/68 90/0/68
f 99/0/68 100/0/68 89/0/68
f 69/0/68 71/0/68 85/0/68
f 74/0/68 75/0/68 81/0/68
f 77/0/68 80/0/68 76/0/68
f 82/0/68 83/0/68 73/0/68
f 86/0/68 87/0/68 101/0/68
f 90/0/68 91/0/68 97/0/68
f 93/0/68 96/0/68 92/0/68
f 98/0/68 99/0/68 89/0/68
f 72/0/68 84/0/68 85/0/68
f 80/0/68 81/0/68 76/0/68
f 88/0/68 100/0/68 101/0/68
f 96/0/68 97/0/68 92/0/68
f 73/0/68 84/0/68 72/0/68
v 0.147832 1.706606 -2.584058
v 0.147832 5.651307 -0.060056
v 0.642772 1.706606 -2.535560
v 1.118692 1.706606 -2.391930
v 1.557302 1.706606 -2.158687
v 1.941747 1.706606 -1.844795
v 2.257253 1.706606 -1.462316
v 2.491695 1.706606 -1.025950
v 2.636064 1.706606 -0.552464
v 2.684811 1.706606 -0.060056
v 2.636064 1.706606 0.432352
v 2.491695 1.706606 0.905838
v 2.257253 1.706606 1.342205
v 1.941747 1.706606 1.724683
v 1.557302 1.706606 2.038576
v 1.118691 1.706606 2.271819
v 0.642771 1.706606 2.415449
v 0.147831 1.706606 2.463947
v -0.347110 1.706606 2.415448
v -0.823030 1.706606 2.271818
v -1.261640 1.706606 2.038575
v -1.646085 1.706606 1.724682
v -1.961591 1.706606 1.342203
v -2.196033 1.706606 0.905836
v -2.340401 1.706606 0.432350
v -2.389148 1.706606 -0.060058
v -2.340400 1.706606 -0.552467
v -2.196031 1.706606 -1.025952
v -1.961588 1.706606 -1.462319
v -1.646082 1.706606 -1.844797
v -1.261636 1.706606 -2.158689
v -0.823025 1.706606 -2.391931
v -0.347105 1.706606 -2.535561
vn -0.243700 0.537300 -0.807400
vn 0.082300 0.537100 -0.839500
vn -0.395900 0.537600 -0.744500
vn -0.533200 0.537900 -0.653000
vn -0.650100 0.538300 -0.536300
vn -0.742200 0.538600 -0.398800
vn -0.805700 0.538900 -0.245700
vn -0.838200 0.539100 -0.083000
vn -0.838200 0.539100 0.083000
vn -0.805700 0.538900 0.245700
vn -0.742200 0.538600 0.398800
vn -0.650100 0.538300 0.536300
vn -0.533200 0.537900 0.653000
vn -0.395900 0.537600 0.744500
vn -0.243700 0.537300 0.807400
vn -0.082300 0.537100 0.839500
vn 0.082300 0.537100 0.839500
vn 0.243700 0.537300 0.807400
vn 0.395900 0.537600 0.744500
vn 0.533200 0.537900 0.653000
vn 0.650100 0.538300 0.536300
vn 0.742200 0.538600 0.398800
vn 0.805700 0.538900 0.245700
vn 0.838200 0.539100 0.083000
vn 0.838200 0.539100 -0.083000
vn 0.805700 0.538900 -0.245700
vn 0.742200 0.538600 -0.398800
vn 0.650100 0.538300 -0.536300
vn 0.533200 0.537900 -0.653000
vn 0.395900 0.537600 -0.744500
vn -0.082300 0.537100 -0.839500
vn 0.243700 0.537300 -0.807400
vn 0.000000 -1.000000 -0.000000
s off
f 133/0/69 103/0/69 134/0/69
f 102/0/70 103/0/70 104/0/70
f 132/0/71 103/0/71 133/0/71
f 131/0/72 103/0/72 132/0/72
f 130/0/73 103/0/73 131/0/73
f 129/0/74 103/0/74 130/0/74
f 128/0/75 103/0/75 129/0/75
f 127/0/76 103/0/76 128/0/76
f 126/0/77 103/0/77 127/0/77
f 125/0/78 103/0/78 126/0/78
f 124/0/79 103/0/79 125/0/79
f 123/0/80 103/0/80 124/0/80
f 122/0/81 103/0/81 123/0/81
f 121/0/82 103/0/82 122/0/82
f 120/0/83 103/0/83 121/0/83
f 119/0/84 103/0/84 120/0/84
f 118/0/85 103/0/85 119/0/85
f 117/0/86 103/0/86 118/0/86
f 116/0/87 103/0/87 117/0/87
f 115/0/88 103/0/88 116/0/88
f 114/0/89 103/0/89 115/0/89
f 113/0/90 103/0/90 114/0/90
f 112/0/91 103/0/91 113/0/91
f 111/0/92 103/0/92 112/0/92
f 110/0/93 103/0/93 111/0/93
f 109/0/94 103/0/94 110/0/94
f 108/0/95 103/0/95 109/0/95
f 107/0/96 103/0/96 108/0/96
f 106/0/97 103/0/97 107/0/97
f 105/0/98 103/0/98 106/0/98
f 134/0/99 103/0/99 102/0/99
f 104/0/100 103/0/100 105/0/100
f 122/0/101 133/0/101 121/0/101
f 134/0/101 102/0/101 119/0/101
f 104/0/101 105/0/101 118/0/101
f 106/0/101 107/0/101 115/0/101
f 108/0/101 109/0/101 114/0/101
f 110/0/101 111/0/101 112/0/101
f 112/0/101 113/0/101 110/0/101
f 114/0/101 115/0/101 107/0/101
f 116/0/101 117/0/101 106/0/101
f 118/0/101 119/0/101 102/0/101
f 120/0/101 121/0/101 134/0/101
f 122/0/101 123/0/101 131/0/101
f 124/0/101 125/0/101 130/0/101
f 126/0/101 127/0/101 128/0/101
f 128/0/101 129/0/101 126/0/101
f 130/0/101 131/0/101 123/0/101
f 132/0/101 133/0/101 122/0/101
f 102/0/101 104/0/101 118/0/101
f 107/0/101 108/0/101 114/0/101
f 110/0/101 113/0/101 109/0/101
f 115/0/101 116/0/101 106/0/101
f 119/0/101 120/0/101 134/0/101
f 123/0/101 124/0/101 130/0/101
f 126/0/101 129/0/101 125/0/101
f 131/0/101 132/0/101 122/0/101
f 105/0/101 117/0/101 118/0/101
f 113/0/101 114/0/101 109/0/101
f 121/0/101 133/0/101 134/0/101
f 129/0/101 130/0/101 125/0/101
f 106/0/101 117/0/101 105/0/101
v 0.147832 4.852423 -1.716089
v 0.147832 7.662903 -0.060056
v 0.469034 4.852423 -1.684268
v 0.777893 4.852423 -1.590031
v 1.062540 4.852423 -1.436997
v 1.312034 4.852423 -1.231048
v 1.516789 4.852423 -0.980098
v 1.668935 4.852423 -0.693792
v 1.762627 4.852423 -0.383132
v 1.794262 4.852423 -0.060056
v 1.762627 4.852423 0.263020
v 1.668936 4.852423 0.573680
v 1.516789 4.852423 0.859987
v 1.312034 4.852423 1.110936
v 1.062540 4.852423 1.316885
v 0.777893 4.852423 1.469919
v 0.469034 4.852423 1.564157
v 0.147831 4.852423 1.595977
v -0.173372 4.852423 1.564157
v -0.482231 4.852423 1.469919
v -0.766877 4.852423 1.316885
v -1.016371 4.852423 1.110935
v -1.221126 4.852423 0.859986
v -1.373273 4.852423 0.573679
v -1.466964 4.852423 0.263019
v -1.498599 4.852423 -0.060057
v -1.466963 4.852423 -0.383133
v -1.373271 4.852423 -0.693794
v -1.221124 4.852423 -0.980100
v -1.016369 4.852423 -1.231049
v -0.766874 4.852423 -1.436998
v -0.482228 4.852423 -1.590032
v -0.173369 4.852423 -1.684269
vn -0.251800 0.505700 -0.825200
vn 0.085000 0.505800 -0.858400
vn -0.408600 0.505400 -0.760000
vn -0.549500 0.505000 -0.665700
vn -0.669000 0.504500 -0.545800
vn -0.762600 0.504100 -0.405300
vn -0.827000 0.503800 -0.249400
vn -0.859800 0.503700 -0.084200
vn -0.859800 0.503700 0.084200
vn -0.827000 0.503800 0.249400
vn -0.762600 0.504100 0.405300
vn -0.669000 0.504500 0.545800
vn -0.549500 0.505000 0.665700
vn -0.408600 0.505400 0.760000
vn -0.251800 0.505700 0.825200
vn -0.085000 0.505800 0.858400
vn 0.085000 0.505800 0.858400
vn 0.251800 0.505700 0.825200
vn 0.408600 0.505400 0.760000
vn 0.549500 0.505000 0.665700
vn 0.669000 0.504500 0.545800
vn 0.762600 0.504100 0.405300
vn 0.827000 0.503800 0.249400
vn 0.859800 0.503700 0.084200
vn 0.859800 0.503700 -0.084200
vn 0.827000 0.503800 -0.249400
vn 0.762600 0.504100 -0.405300
vn 0.669000 0.504500 -0.545800
vn 0.549500 0.505000 -0.665700
vn 0.408600 0.505400 -0.760000
vn -0.085000 0.505800 -0.858400
vn 0.251800 0.505700 -0.825200
vn 0.000000 -1.000000 0.000000
s off
f 166/0/102 136/0/102 167/0/102
f 135/0/103 136/0/103 137/0/103
f 165/0/104 136/0/104 166/0/104
f 164/0/105 136/0/105 165/0/105
f 163/0/106 136/0/106 164/0/106
f 162/0/107 136/0/107 163/0/107
f 161/0/108 136/0/108 162/0/108
f 160/0/109 136/0/109 161/0/109
f 159/0/110 136/0/110 160/0/110
f 158/0/111 136/0/111 159/0/111
f 157/0/112 136/0/112 158/0/112
f 156/0/113 136/0/113 157/0/113
f 155/0/114 136/0/114 156/0/114
f 154/0/115 136/0/115 155/0/115
f 153/0/116 136/0/116 154/0/116
f 152/0/117 136/0/117 153/0/117
f 151/0/118 136/0/118 152/0/118
f 150/0/119 136/0/119 151/0/119
f 149/0/120 136/0/120 150/0/120
f 148/0/121 136/0/121 149/0/121
f 147/0/122 136/0/122 148/0/122
f 146/0/123 136/0/123 147/0/123
f 145/0/124 136/0/124 146/0/124
f 144/0/125 136/0/125 145/0/125
f 143/0/126 136/0/126 144/0/126
f 142/0/127 136/0/127 143/0/127
f 141/0/128 136/0/128 142/0/128
f 140/0/129 136/0/129 141/0/129
f 139/0/130 136/0/130 140/0/130
f 138/0/131 136/0/131 139/0/131
f 167/0/132 136/0/132 135/0/132
f 137/0/133 136/0/133 138/0/133
f 158/0/134 146/0/134 147/0/134
f 167/0/134 135/0/134 137/0/134
f 137/0/134 138/0/134 167/0/134
f 139/0/134 140/0/134 164/0/134
f 141/0/134 142/0/134 163/0/134
f 143/0/134 144/0/134 160/0/134
f 145/0/134 146/0/134 159/0/134
f 147/0/134 148/0/134 156/0/134
f 149/0/134 150/0/134 155/0/134
f 151/0/134 152/0/134 153/0/134
f 153/0/134 154/0/134 151/0/134
f 155/0/134 156/0/134 148/0/134
f 157/0/134 158/0/134 147/0/134
f 159/0/134 160/0/134 144/0/134
f 161/0/134 162/0/134 143/0/134
f 163/0/134 164/0/134 140/0/134
f 165/0/134 166/0/134 139/0/134
f 167/0/134 138/0/134 166/0/134
f 140/0/134 141/0/134 163/0/134
f 144/0/134 145/0/134 159/0/134
f 148/0/134 149/0/134 155/0/134
f 151/0/134 154/0/134 150/0/134
f 156/0/134 157/0/134 147/0/134
f 160/0/134 161/0/134 143/0/134
f 164/0/134 165/0/134 139/0/134
f 138/0/134 139/0/134 166/0/134
f 146/0/134 158/0/134 159/0/134
f 154/0/134 155/0/134 150/0/134
f 162/0/134 142/0/134 143/0/134
f 142/0/134 162/0/134 163/0/134
v 0.147832 7.071425 -1.041083
v 0.147832 8.700875 -0.060056
v 0.336958 7.071425 -1.022233
v 0.518817 7.071425 -0.966407
v 0.686419 7.071425 -0.875750
v 0.833324 7.071425 -0.753747
v 0.953885 7.071425 -0.605085
v 1.043470 7.071425 -0.435479
v 1.098636 7.071425 -0.251445
v 1.117264 7.071425 -0.060056
v 1.098636 7.071425 0.131333
v 1.043470 7.071425 0.315367
v 0.953885 7.071425 0.484974
v 0.833324 7.071425 0.633635
v 0.686419 7.071425 0.755638
v 0.518817 7.071425 0.846295
v 0.336958 7.071425 0.902121
v 0.147831 7.071425 0.920971
v -0.041296 7.071425 0.902121
v -0.223154 7.071425 0.846295
v -0.390756 7.071425 0.755638
v -0.537661 7.071425 0.633635
v -0.658222 7.071425 0.484973
v -0.747807 7.071425 0.315366
v -0.802973 7.071425 0.131332
v -0.821600 7.071425 -0.060057
v -0.802973 7.071425 -0.251446
v -0.747806 7.071425 -0.435480
v -0.658221 7.071425 -0.605086
v -0.537659 7.071425 -0.753748
v -0.390755 7.071425 -0.875751
v -0.223153 7.071425 -0.966407
v -0.041294 7.071425 -1.022233
vn -0.251800 0.513600 -0.820300
vn 0.085100 0.513900 -0.853600
vn -0.408400 0.513000 -0.755000
vn -0.548700 0.512100 -0.660700
vn -0.667500 0.511300 -0.541300
vn -0.760400 0.510500 -0.401600
vn -0.824000 0.509800 -0.247000
vn -0.856400 0.509500 -0.083400
vn -0.856400 0.509500 0.083400
vn -0.824000 0.509800 0.247000
vn -0.760400 0.510500 0.401600
vn -0.667500 0.511300 0.541300
vn -0.548700 0.512100 0.660700
vn -0.408400 0.513000 0.755000
vn -0.251800 0.513600 0.820300
vn -0.085100 0.513900 0.853600
vn 0.085100 0.513900 0.853600
vn 0.251800 0.513600 0.820300
vn 0.408400 0.513000 0.755000
vn 0.548700 0.512100 0.660700
vn 0.667500 0.511300 0.541300
vn 0.760400 0.510500 0.401600
vn 0.824000 0.509800 0.247000
vn 0.856400 0.509500 0.083400
vn 0.856400 0.509500 -0.083400
vn 0.824000 0.509800 -0.247000
vn 0.760400 0.510500 -0.401600
vn 0.667500 0.511300 -0.541300
vn 0.548700 0.512100 -0.660700
vn 0.408400 0.513000 -0.755000
vn -0.085100 0.513900 -0.853600
vn 0.251800 0.513600 -0.820300
vn 0.000000 -1.000000 0.000000
s off
f 199/0/135 169/0/135 200/0/135
f 168/0/136 169/0/136 170/0/136
f 198/0/137 169/0/137 199/0/137
f 197/0/138 169/0/138 198/0/138
f 196/0/139 169/0/139 197/0/139
f 195/0/140 169/0/140 196/0/140
f 194/0/141 169/0/141 195/0/141
f 193/0/142 169/0/142 194/0/142
f 192/0/143 169/0/143 193/0/143
f 191/0/144 169/0/144 192/0/144
f 190/0/145 169/0/145 191/0/145
f 189/0/146 169/0/146 190/0/146
f 188/0/147 169/0/147 189/0/147
f 187/0/148 169/0/148 188/0/148
f 186/0/149 169/0/149 187/0/149
f 185/0/150 169/0/150 186/0/150
f 184/0/151 169/0/151 185/0/151
f 183/0/152 169/0/152 184/0/152
f 182/0/153 169/0/153 183/0/153
f 181/0/154 169/0/154 182/0/154
f 180/0/155 169/0/155 181/0/155
f 179/0/156 169/0/156 180/0/156
f 178/0/157 169/0/157 179/0/157
f 177/0/158 169/0/158 178/0/158
f 176/0/159 169/0/159 177/0/159
f 175/0/160 169/0/160 176/0/160
f 174/0/161 169/0/161 175/0/161
f 173/0/162 169/0/162 174/0/162
f 172/0/163 169/0/163 173/0/163
f 171/0/164 169/0/164 172/0/164
f 200/0/165 169/0/165 168/0/165
f 170/0/166 169/0/166 171/0/166
f 191/0/167 179/0/167 180/0/167
f 200/0/167 168/0/167 170/0/167
f 170/0/167 171/0/167 200/0/167
f 172/0/167 173/0/167 197/0/167
f 174/0/167 175/0/167 196/0/167
f 176/0/167 177/0/167 193/0/167
f 178/0/167 179/0/167 192/0/167
f 180/0/167 181/0/167 189/0/167
f 182/0/167 183/0/167 188/0/167
f 184/0/167 185/0/167 186/0/167
f 186/0/167 187/0/167 184/0/167
f 188/0/167 189/0/167 181/0/167
f 190/0/167 191/0/167 180/0/167
f 192/0/167 193/0/167 177/0/167
f 194/0/167 195/0/167 176/0/167
f 196/0/167 197/0/167 173/0/167
f 198/0/167 199/0/167 172/0/167
f 200/0/167 171/0/167 199/0/167
f 173/0/167 174/0/167 196/0/167
f 177/0/167 178/0/167 192/0/167
f 181/0/167 182/0/167 188/0/167
f 184/0/167 187/0/167 183/0/167
f 189/0/167 190/0/167 180/0/167
f 193/0/167 194/0/167 176/0/167
f 197/0/167 198/0/167 172/0/167
f 171/0/167 172/0/167 199/0/167
f 179/0/167 191/0/167 192/0/167
f 187/0/167 188/0/167 183/0/167
f 195/0/167 175/0/167 176/0/167
f 175/0/167 195/0/167 196/0/167
color 0.0 0.2 0.0