# Blender v2.76 (sub 0) OBJ File: 'FOREST1.blend'
# www.blender.org
mtllib FOREST1.mtl
o Cone
v -0.001545 2.117156 -3.207628
v -0.001545 6.606612 0.133440
v 0.650538 2.117156 -3.143431
v 1.277561 2.117156 -2.953305
v 1.855429 2.117156 -2.644557
v 2.361935 2.117156 -2.229052
v 2.777613 2.117156 -1.722758
v 3.086490 2.117156 -1.145131
v 3.276695 2.117156 -0.518370
v 3.340920 2.117156 0.133440
v 3.276696 2.117156 0.785250
v 3.086490 2.117156 1.412012
v 2.777613 2.117156 1.989639
v 2.361935 2.117156 2.495933
v 1.855429 2.117156 2.911438
v 1.277561 2.117156 3.220186
v 0.650537 2.117156 3.410312
v -0.001546 2.117156 3.474509
v -0.653629 2.117156 3.410311
v -1.280653 2.117156 3.220185
v -1.858521 2.117156 2.911437
v -2.365026 2.117156 2.495932
v -2.780704 2.117156 1.989637
v -3.089581 2.117156 1.412010
v -3.279786 2.117156 0.785248
v -3.344010 2.117156 0.133437
v -3.279785 2.117156 -0.518373
v -3.089579 2.117156 -1.145135
v -2.780701 2.117156 -1.722761
v -2.365022 2.117156 -2.229055
v -1.858515 2.117156 -2.644559
v -1.280646 2.117156 -2.953307
v -0.653623 2.117156 -3.143432
vn -0.233200 0.595200 -0.769000
vn 0.078700 0.595200 -0.799700
vn -0.378700 0.595200 -0.708800
vn -0.509600 0.595200 -0.621300
vn -0.621000 0.595300 -0.509900
vn -0.708600 0.595300 -0.378900
vn -0.768900 0.595300 -0.233300
vn -0.799600 0.595300 -0.078800
vn -0.799600 0.595300 0.078800
vn -0.768900 0.595300 0.233300
vn -0.708600 0.595300 0.378900
vn -0.621000 0.595300 0.509900
vn -0.509600 0.595200 0.621300
vn -0.378700 0.595200 0.708800
vn -0.233200 0.595200 0.769000
vn -0.078700 0.595200 0.799700
vn 0.078700 0.595200 0.799700
vn 0.233200 0.595200 0.769000
vn 0.378700 0.595200 0.708800
vn 0.509600 0.595200 0.621300
vn 0.621000 0.595300 0.509900
vn 0.708600 0.595300 0.378900
vn 0.768900 0.595300 0.233300
vn 0.799600 0.595300 0.078800
vn 0.799600 0.595300 -0.078800
vn 0.768900 0.595300 -0.233300
vn 0.708600 0.595300 -0.378900
vn 0.621000 0.595300 -0.509900
vn 0.509600 0.595200 -0.621300
vn 0.378700 0.595200 -0.708800
vn -0.078700 0.595200 -0.799700
vn 0.233200 0.595200 -0.769000
vn 0.000000 -1.000000 -0.000000
usemtl None
s off
f 32/0/1 2/0/1 33/0/1
f 1/0/2 2/0/2 3/0/2
f 31/0/3 2/0/3 32/0/3
f 30/0/4 2/0/4 31/0/4
f 29/0/5 2/0/5 30/0/5
f 28/0/6 2/0/6 29/0/6
f 27/0/7 2/0/7 28/0/7
f 26/0/8 2/0/8 27/0/8
f 25/0/9 2/0/9 26/0/9
f 24/0/10 2/0/10 25/0/10
f 23/0/11 2/0/11 24/0/11
f 22/0/12 2/0/12 23/0/12
f 21/0/13 2/0/13 22/0/13
f 20/0/14 2/0/14 21/0/14
f 19/0/15 2/0/15 20/0/15
f 18/0/16 2/0/16 19/0/16
f 17/0/17 2/0/17 18/0/17
f 16/0/18 2/0/18 17/0/18
f 15/0/19 2/0/19 16/0/19
f 14/0/20 2/0/20 15/0/20
f 13/0/21 2/0/21 14/0/21
f 12/0/22 2/0/22 13/0/22
f 11/0/23 2/0/23 12/0/23
f 10/0/24 2/0/24 11/0/24
f 9/0/25 2/0/25 10/0/25
f 8/0/26 2/0/26 9/0/26
f 7/0/27 2/0/27 8/0/27
f 6/0/28 2/0/28 7/0/28
f 5/0/29 2/0/29 6/0/29
f 4/0/30 2/0/30 5/0/30
f 33/0/31 2/0/31 1/0/31
f 3/0/32 2/0/32 4/0/32
f 1/0/33 3/0/33 4/0/33 5/0/33 6/0/33 7/0/33 8/0/33 9/0/33 10/0/33 11/0/33 12/0/33 13/0/33 14/0/33 15/0/33 16/0/33 17/0/33 18/0/33 19/0/33 20/0/33 21/0/33 22/0/33 23/0/33 24/0/33 25/0/33 26/0/33 27/0/33 28/0/33 29/0/33 30/0/33 31/0/33 32/0/33 33/0/33
o Cylinder
v 0.007694 -0.179499 -0.651940
v 0.007694 2.298290 -0.651940
v 0.158988 -0.179499 -0.637039
v 0.158988 2.298290 -0.637039
v 0.304467 -0.179499 -0.592908
v 0.304467 2.298290 -0.592908
v 0.438542 -0.179499 -0.521244
v 0.438542 2.298290 -0.521244
v 0.556059 -0.179499 -0.424800
v 0.556059 2.298290 -0.424800
v 0.652503 -0.179499 -0.307282
v 0.652503 2.298290 -0.307282
v 0.724167 -0.179499 -0.173208
v 0.724167 2.298290 -0.173208
v 0.768298 -0.179499 -0.027729
v 0.768298 2.298290 -0.027729
v 0.783199 -0.179499 0.123564
v 0.783199 2.298290 0.123564
v 0.768298 -0.179499 0.274858
v 0.768298 2.298290 0.274858
v 0.724167 -0.179499 0.420337
v 0.724167 2.298290 0.420337
v 0.652503 -0.179499 0.554412
v 0.652503 2.298290 0.554412
v 0.556059 -0.179499 0.671929
v 0.556059 2.298290 0.671929
v 0.438541 -0.179499 0.768373
v 0.438541 2.298290 0.768373
v 0.304467 -0.179499 0.840037
v 0.304467 2.298290 0.840037
v 0.158988 -0.179499 0.884168
v 0.158988 2.298290 0.884168
v 0.007694 -0.179499 0.899069
v 0.007694 2.298290 0.899069
v -0.143599 -0.179499 0.884168
v -0.143599 2.298290 0.884168
v -0.289078 -0.179499 0.840037
v -0.289078 2.298290 0.840037
v -0.423153 -0.179499 0.768372
v -0.423153 2.298290 0.768372
v -0.540670 -0.179499 0.671928
v -0.540670 2.298290 0.671928
v -0.637114 -0.179499 0.554411
v -0.637114 2.298290 0.554411
v -0.708778 -0.179499 0.420337
v -0.708778 2.298290 0.420337
v -0.752909 -0.179499 0.274857
v -0.752909 2.298290 0.274857
v -0.767810 -0.179499 0.123564
v -0.767810 2.298290 0.123564
v -0.752908 -0.179499 -0.027730
v -0.752908 2.298290 -0.027730
v -0.708778 -0.179499 -0.173209
v -0.708778 2.298290 -0.173209
v -0.637113 -0.179499 -0.307283
v -0.637113 2.298290 -0.307283
v -0.540669 -0.179499 -0.424800
v -0.540669 2.298290 -0.424800
v -0.423152 -0.179499 -0.521244
v -0.423152 2.298290 -0.521244
v -0.289077 -0.179499 -0.592908
v -0.289077 2.298290 -0.592908
v -0.143598 -0.179499 -0.637039
v -0.143598 2.298290 -0.637039
vn 0.098000 0.000000 -0.995200
vn 0.290300 0.000000 -0.956900
vn 0.471400 0.000000 -0.881900
vn 0.634400 0.000000 -0.773000
vn 0.773000 0.000000 -0.634400
vn 0.881900 0.000000 -0.471400
vn 0.956900 0.000000 -0.290300
vn 0.995200 0.000000 -0.098000
vn 0.995200 0.000000 0.098000
vn 0.956900 0.000000 0.290300
vn 0.881900 0.000000 0.471400
vn 0.773000 0.000000 0.634400
vn 0.634400 0.000000 0.773000
vn 0.471400 0.000000 0.881900
vn 0.290300 0.000000 0.956900
vn 0.098000 0.000000 0.995200
vn -0.098000 0.000000 0.995200
vn -0.290300 0.000000 0.956900
vn -0.471400 0.000000 0.881900
vn -0.634400 0.000000 0.773000
vn -0.773000 0.000000 0.634400
vn -0.881900 0.000000 0.471400
vn -0.956900 0.000000 0.290300
vn -0.995200 0.000000 0.098000
vn -0.995200 0.000000 -0.098000
vn -0.956900 0.000000 -0.290300
vn -0.881900 0.000000 -0.471400
vn -0.773000 0.000000 -0.634400
vn -0.634400 0.000000 -0.773000
vn -0.471400 0.000000 -0.881900
vn 0.000000 1.000000 -0.000000
vn -0.098000 0.000000 -0.995200
vn -0.290300 0.000000 -0.956900
vn 0.000000 -1.000000 0.000000
usemtl None
s off
f 34/0/34 35/0/34 37/0/34 36/0/34
f 36/0/35 37/0/35 39/0/35 38/0/35
f 38/0/36 39/0/36 41/0/36 40/0/36
f 40/0/37 41/0/37 43/0/37 42/0/37
f 42/0/38 43/0/38 45/0/38 44/0/38
f 44/0/39 45/0/39 47/0/39 46/0/39
f 46/0/40 47/0/40 49/0/40 48/0/40
f 48/0/41 49/0/41 51/0/41 50/0/41
f 50/0/42 51/0/42 53/0/42 52/0/42
f 52/0/43 53/0/43 55/0/43 54/0/43
f 54/0/44 55/0/44 57/0/44 56/0/44
f 56/0/45 57/0/45 59/0/45 58/0/45
f 58/0/46 59/0/46 61/0/46 60/0/46
f 60/0/47 61/0/47 63/0/47 62/0/47
f 62/0/48 63/0/48 65/0/48 64/0/48
f 64/0/49 65/0/49 67/0/49 66/0/49
f 66/0/50 67/0/50 69/0/50 68/0/50
f 68/0/51 69/0/51 71/0/51 70/0/51
f 70/0/52 71/0/52 73/0/52 72/0/52
f 72/0/53 73/0/53 75/0/53 74/0/53
f 74/0/54 75/0/54 77/0/54 76/0/54
f 76/0/55 77/0/55 79/0/55 78/0/55
f 78/0/56 79/0/56 81/0/56 80/0/56
f 80/0/57 81/0/57 83/0/57 82/0/57
f 82/0/58 83/0/58 85/0/58 84/0/58
f 84/0/59 85/0/59 87/0/59 86/0/59
f 86/0/60 87/0/60 89/0/60 88/0/60
f 88/0/61 89/0/61 91/0/61 90/0/61
f 90/0/62 91/0/62 93/0/62 92/0/62
f 92/0/63 93/0/63 95/0/63 94/0/63
f 37/0/64 35/0/64 97/0/64 95/0/64 93/0/64 91/0/64 89/0/64 87/0/64 85/0/64 83/0/64 81/0/64 79/0/64 77/0/64 75/0/64 73/0/64 71/0/64 69/0/64 67/0/64 65/0/64 63/0/64 61/0/64 59/0/64 57/0/64 55/0/64 53/0/64 51/0/64 49/0/64 47/0/64 45/0/64 43/0/64 41/0/64 39/0/64
f 96/0/65 97/0/65 35/0/65 34/0/65
f 94/0/66 95/0/66 97/0/66 96/0/66
f 34/0/67 36/0/67 38/0/67 40/0/67 42/0/67 44/0/67 46/0/67 48/0/67 50/0/67 52/0/67 54/0/67 56/0/67 58/0/67 60/0/67 62/0/67 64/0/67 66/0/67 68/0/67 70/0/67 72/0/67 74/0/67 76/0/67 78/0/67 80/0/67 82/0/67 84/0/67 86/0/67 88/0/67 90/0/67 92/0/67 94/0/67 96/0/67
o Cone.001
v -0.001545 7.836706 -1.510336
v -0.001545 10.045479 0.133440
v 0.319274 7.836706 -1.478751
v 0.627764 7.836706 -1.385211
v 0.912070 7.836706 -1.233309
v 1.161266 7.836706 -1.028885
v 1.365776 7.836706 -0.779793
v 1.517741 7.836706 -0.495605
v 1.611320 7.836706 -0.187244
v 1.642918 7.836706 0.133440
v 1.611320 7.836706 0.454125
v 1.517741 7.836706 0.762486
v 1.365776 7.836706 1.046673
v 1.161266 7.836706 1.295766
v 0.912070 7.836706 1.500190
v 0.627764 7.836706 1.652092
v 0.319273 7.836706 1.745632
v -0.001546 7.836706 1.777216
v -0.322364 7.836706 1.745632
v -0.630854 7.836706 1.652091
v -0.915160 7.836706 1.500190
v -1.164357 7.836706 1.295765
v -1.368867 7.836706 1.046673
v -1.520831 7.836706 0.762485
v -1.614410 7.836706 0.454124
v -1.646008 7.836706 0.133439
v -1.614410 7.836706 -0.187246
v -1.520830 7.836706 -0.495607
v -1.368865 7.836706 -0.779794
v -1.164354 7.836706 -1.028886
v -0.915158 7.836706 -1.233311
v -0.630851 7.836706 -1.385211
v -0.322361 7.836706 -1.478751
vn -0.233200 0.595200 -0.769000
vn 0.078700 0.595200 -0.799700
vn -0.378700 0.595200 -0.708800
vn -0.509600 0.595200 -0.621300
vn -0.621000 0.595300 -0.509900
vn -0.708600 0.595300 -0.378900
vn -0.768900 0.595300 -0.233300
vn -0.799600 0.595300 -0.078800
vn -0.799600 0.595300 0.078800
vn -0.768900 0.595300 0.233300
vn -0.708600 0.595300 0.378900
vn -0.621000 0.595300 0.509900
vn -0.509600 0.595200 0.621300
vn -0.378700 0.595200 0.708800
vn -0.233200 0.595200 0.769000
vn -0.078700 0.595200 0.799700
vn 0.078700 0.595200 0.799700
vn 0.233200 0.595200 0.769000
vn 0.378700 0.595200 0.708800
vn 0.509600 0.595200 0.621300
vn 0.621000 0.595300 0.509900
vn 0.708600 0.595300 0.378900
vn 0.768900 0.595300 0.233300
vn 0.799600 0.595300 0.078800
vn 0.799600 0.595300 -0.078800
vn 0.768900 0.595300 -0.233300
vn 0.708600 0.595300 -0.378900
vn 0.621000 0.595300 -0.509900
vn 0.509600 0.595200 -0.621300
vn 0.378700 0.595200 -0.708800
vn -0.078700 0.595200 -0.799700
vn 0.233200 0.595200 -0.769000
vn 0.000000 -1.000000 0.000000
usemtl None
s off
f 129/0/68 99/0/68 130/0/68
f 98/0/69 99/0/69 100/0/69
f 128/0/70 99/0/70 129/0/70
f 127/0/71 99/0/71 128/0/71
f 126/0/72 99/0/72 127/0/72
f 125/0/73 99/0/73 126/0/73
f 124/0/74 99/0/74 125/0/74
f 123/0/75 99/0/75 124/0/75
f 122/0/76 99/0/76 123/0/76
f 121/0/77 99/0/77 122/0/77
f 120/0/78 99/0/78 121/0/78
f 119/0/79 99/0/79 120/0/79
f 118/0/80 99/0/80 119/0/80
f 117/0/81 99/0/81 118/0/81
f 116/0/82 99/0/82 117/0/82
f 115/0/83 99/0/83 116/0/83
f 114/0/84 99/0/84 115/0/84
f 113/0/85 99/0/85 114/0/85
f 112/0/86 99/0/86 113/0/86
f 111/0/87 99/0/87 112/0/87
f 110/0/88 99/0/88 111/0/88
f 109/0/89 99/0/89 110/0/89
f 108/0/90 99/0/90 109/0/90
f 107/0/91 99/0/91 108/0/91
f 106/0/92 99/0/92 107/0/92
f 105/0/93 99/0/93 106/0/93
f 104/0/94 99/0/94 105/0/94
f 103/0/95 99/0/95 104/0/95
f 102/0/96 99/0/96 103/0/96
f 101/0/97 99/0/97 102/0/97
f 130/0/98 99/0/98 98/0/98
f 100/0/99 99/0/99 101/0/99
f 98/0/100 100/0/100 101/0/100 102/0/100 103/0/100 104/0/100 105/0/100 106/0/100 107/0/100 108/0/100 109/0/100 110/0/100 111/0/100 112/0/100 113/0/100 114/0/100 115/0/100 116/0/100 117/0/100 118/0/100 119/0/100 120/0/100 121/0/100 122/0/100 123/0/100 124/0/100 125/0/100 126/0/100 127/0/100 128/0/100 129/0/100 130/0/100
o Cone.002
v -0.001545 5.022006 -2.349929
v -0.001545 8.358955 0.133440
v 0.483139 5.022006 -2.302211
v 0.949196 5.022006 -2.160893
v 1.378718 5.022006 -1.931405
v 1.755196 5.022006 -1.622567
v 2.064164 5.022006 -1.246245
v 2.293748 5.022006 -0.816904
v 2.435125 5.022006 -0.351041
v 2.482862 5.022006 0.133440
v 2.435125 5.022006 0.617921
v 2.293748 5.022006 1.083784
v 2.064164 5.022006 1.513126
v 1.755196 5.022006 1.889447
v 1.378717 5.022006 2.198287
v 0.949196 5.022006 2.427775
v 0.483138 5.022006 2.569093
v -0.001546 5.022006 2.616810
v -0.486230 5.022006 2.569092
v -0.952287 5.022006 2.427774
v -1.381809 5.022006 2.198286
v -1.758287 5.022006 1.889446
v -2.067255 5.022006 1.513125
v -2.296839 5.022006 1.083783
v -2.438215 5.022006 0.617920
v -2.485952 5.022006 0.133438
v -2.438214 5.022006 -0.351043
v -2.296837 5.022006 -0.816906
v -2.067252 5.022006 -1.246248
v -1.758284 5.022006 -1.622569
v -1.381805 5.022006 -1.931407
v -0.952283 5.022006 -2.160895
v -0.486225 5.022006 -2.302212
vn -0.233200 0.595200 -0.769000
vn 0.078700 0.595200 -0.799700
vn -0.378700 0.595200 -0.708800
vn -0.509600 0.595200 -0.621300
vn -0.621000 0.595300 -0.509900
vn -0.708600 0.595300 -0.378900
vn -0.768900 0.595300 -0.233300
vn -0.799600 0.595300 -0.078800
vn -0.799600 0.595300 0.078800
vn -0.768900 0.595300 0.233300
vn -0.708600 0.595300 0.378900
vn -0.621000 0.595300 0.509900
vn -0.509600 0.595200 0.621300
vn -0.378700 0.595200 0.708800
vn -0.233200 0.595200 0.769000
vn -0.078700 0.595200 0.799700
vn 0.078700 0.595200 0.799700
vn 0.233200 0.595200 0.769000
vn 0.378700 0.595200 0.708800
vn 0.509600 0.595200 0.621300
vn 0.621000 0.595300 0.509900
vn 0.708600 0.595300 0.378900
vn 0.768900 0.595300 0.233300
vn 0.799600 0.595300 0.078800
vn 0.799600 0.595300 -0.078800
vn 0.768900 0.595300 -0.233300
vn 0.708600 0.595300 -0.378900
vn 0.621000 0.595300 -0.509900
vn 0.509600 0.595200 -0.621300
vn 0.378700 0.595200 -0.708800
vn -0.078700 0.595200 -0.799700
vn 0.233200 0.595200 -0.769000
vn 0.000000 -1.000000 -0.000000
usemtl None
s off
f 162/0/101 132/0/101 163/0/101
f 131/0/102 132/0/102 133/0/102
f 161/0/103 132/0/103 162/0/103
f 160/0/104 132/0/104 161/0/104
f 159/0/105 132/0/105 160/0/105
f 158/0/106 132/0/106 159/0/106
f 157/0/107 132/0/107 158/0/107
f 156/0/108 132/0/108 157/0/108
f 155/0/109 132/0/109 156/0/109
f 154/0/110 132/0/110 155/0/110
f 153/0/111 132/0/111 154/0/111
f 152/0/112 132/0/112 153/0/112
f 151/0/113 132/0/113 152/0/113
f 150/0/114 132/0/114 151/0/114
f 149/0/115 132/0/115 150/0/115
f 148/0/116 132/0/116 149/0/116
f 147/0/117 132/0/117 148/0/117
f 146/0/118 132/0/118 147/0/118
f 145/0/119 132/0/119 146/0/119
f 144/0/120 132/0/120 145/0/120
f 143/0/121 132/0/121 144/0/121
f 142/0/122 132/0/122 143/0/122
f 141/0/123 132/0/123 142/0/123
f 140/0/124 132/0/124 141/0/124
f 139/0/125 132/0/125 140/0/125
f 138/0/126 132/0/126 139/0/126
f 137/0/127 132/0/127 138/0/127
f 136/0/128 132/0/128 137/0/128
f 135/0/129 132/0/129 136/0/129
f 134/0/130 132/0/130 135/0/130
f 163/0/131 132/0/131 131/0/131
f 133/0/132 132/0/132 134/0/132
f 131/0/133 133/0/133 134/0/133 135/0/133 136/0/133 137/0/133 138/0/133 139/0/133 140/0/133 141/0/133 142/0/133 143/0/133 144/0/133 145/0/133 146/0/133 147/0/133 148/0/133 149/0/133 150/0/133 151/0/133 152/0/133 153/0/133 154/0/133 155/0/133 156/0/133 157/0/133 158/0/133 159/0/133 160/0/133 161/0/133 162/0/133 163/0/133
color 0.0 0.5 0.2